<svg width="201" height="242" viewBox="0 0 201 242" fill="none" xmlns="http://www.w3.org/2000/svg">
<path d="M71 1C75 16 79.0004 29.5 98.2151 68C111.73 95.0802 145.167 108.667 150 111C150 111 134.5 82 124.5 58.5C114.5 35 106.5 1 106.5 1L95 94C77 76.5 53 61 44.5 1" stroke="#575757"/>
<path d="M118.5 92C131 95 135 89 133 77.5" stroke="#575757"/>
<path d="M103 75.5C113 81 127.6 72.6 124 57" stroke="#575757"/>
<path d="M56.5 45.4998C63 53 75.5 56.5 86 41.4998C94.5 49.5 97.5 45.4998 101.5 41.4998C107 44.3332 114.5 45.4998 117 38.5" stroke="#575757"/>
<path d="M48.5 59C55 65.5 67.5 74.5 72 71.5C82 76 93 80 98 68.5" stroke="#575757"/>
<path d="M21 8C25.8333 36.1667 58.9 96.4 152.5 112C113 113.93 108.5 110.566 74.5 113M21 8L15.5 114.5C20 112 31.4419 111.849 40.5 112.5M21 8L40.5 112.5M21 8C21 38 56 89.3788 74.5 113M40.5 112.5C52.0312 113.329 62.5506 112.223 74.5 113" stroke="#575757"/>
<path d="M16.5 84.4997C19.5 79.6663 28.3 72.8997 35.5 84.4997C38.5 72.5 43 70.5 51 79.499C51.6667 75.6657 55.2 69.299 64 74.499" stroke="#575757"/>
<path d="M16 101.5C21.1667 98.1666 32.5 93.3006 38.5 100.501C38.5 86.5 52.5 86.4998 60 93C61 87.3333 65 77.4002 75 83.0002" stroke="#575757"/>
<path d="M16 107.5C20.5 101.5 36.2 108.9 41 112.5C45.5 107.501 54.5 94.5008 71 108.002C68 102.502 78 86.5014 98.5 96.0016" stroke="#575757"/>
<g opacity="0.2">
<path d="M40.565 224.404C40.565 224.404 40.565 218.122 44.5336 219.584C48.5022 221.046 46.0994 225.352 46.0994 225.352C46.0994 225.352 50.608 234.776 40.2681 236.861C40.2141 236.861 33.9507 231.851 40.565 224.404Z" fill="white"/>
<path d="M46.2888 225.726C48.6007 223.811 51.0734 222.107 53.6785 220.632C55.0503 220.38 56.4654 220.642 57.6614 221.37L58.2125 220.352C56.7019 219.452 54.9173 219.153 53.2025 219.511C50.4885 221.062 47.9076 222.843 45.4871 224.834L46.2888 225.726Z" fill="white"/>
<path d="M57.046 230.499L58.2125 230.152C58.2125 229.911 56.5158 224.244 53.1489 224.137C50.4859 224.348 47.8864 225.064 45.4871 226.249L46.0174 227.372C48.2314 226.262 50.6326 225.582 53.0958 225.366C55.1902 225.447 56.6484 229.109 57.046 230.499Z" fill="white"/>
<path d="M55.5057 238.45L56.6217 238.076C56.292 237.126 53.4005 228.783 49.5706 228.908C46.324 228.908 45.5377 229.707 45.487 230.282L46.6284 230.431C46.6434 230.489 46.6434 230.549 46.6284 230.606C46.6284 230.606 47.0849 230.132 49.6467 230.057C52.2084 229.982 54.3643 235.178 55.5057 238.45Z" fill="white"/>
<path d="M51.81 241.632C51.81 241.335 52.4971 234.494 48.1201 233.223L44.2012 232.088L43.8959 233.278L47.8148 234.44C51.2247 235.413 50.6394 241.443 50.6394 241.497L51.81 241.632Z" fill="white"/>
<path d="M39.503 225.725H40.7145C39.5557 215.319 33.4195 213.081 33.1561 213L32.7611 214.186C32.9981 214.132 38.4496 216.154 39.503 225.725Z" fill="white"/>
<path d="M39.5813 227.317L40.7145 226.779C39.322 224.345 37.6355 222.051 35.6845 219.937C33.3906 217.909 27.5315 221.843 26.3984 222.65L27.1998 223.529C29.6872 221.77 33.6669 219.766 34.8001 220.744C36.6492 222.781 38.2517 224.984 39.5813 227.317Z" fill="white"/>
<path d="M27.2766 228.909C29.3521 227.21 33.2903 224.766 34.9668 225.512C36.7474 226.406 38.3872 227.541 39.8364 228.883L40.7145 227.982C39.1415 226.525 37.3467 225.31 35.3925 224.38C32.4655 223.068 27.0104 227.468 26.3984 227.957L27.2766 228.909Z" fill="white"/>
<path d="M27.242 233.678C27.4667 233.428 32.8602 227.933 38.4785 231.586L39.1246 230.337C32.8322 226.122 26.4835 232.554 26.3992 232.617L27.242 233.678Z" fill="white"/>
<path d="M44.5596 162.3C44.6953 162.353 44.8425 162.4 44.9996 162.442V220H43.9996V162L44.5596 162.3Z" fill="white"/>
</g>
<g filter="url(#filter0_d_1_1346)">
<rect x="15" y="111.5" width="163" height="51" rx="4" fill="#72ED2F"/>
<path d="M61.416 142.708C59.7307 142.708 58.3333 142.153 57.224 141.044C56.1147 139.924 55.56 138.543 55.56 136.9C55.56 135.257 56.1147 133.881 57.224 132.772C58.3333 131.652 59.7307 131.092 61.416 131.092C62.4293 131.092 63.3627 131.332 64.216 131.812C65.08 132.292 65.752 132.943 66.232 133.764L64.632 134.692C64.3333 134.137 63.896 133.7 63.32 133.38C62.7547 133.049 62.12 132.884 61.416 132.884C60.2213 132.884 59.2507 133.263 58.504 134.02C57.768 134.777 57.4 135.737 57.4 136.9C57.4 138.063 57.768 139.023 58.504 139.78C59.2507 140.537 60.2213 140.916 61.416 140.916C62.12 140.916 62.76 140.756 63.336 140.436C63.912 140.105 64.344 139.663 64.632 139.108L66.232 140.02C65.7627 140.841 65.096 141.497 64.232 141.988C63.3787 142.468 62.44 142.708 61.416 142.708ZM71.409 142.708C70.2357 142.708 69.2383 142.303 68.417 141.492C67.5957 140.681 67.185 139.684 67.185 138.5C67.185 137.316 67.5957 136.319 68.417 135.508C69.2383 134.697 70.2357 134.292 71.409 134.292C72.593 134.292 73.5903 134.697 74.401 135.508C75.2223 136.319 75.633 137.316 75.633 138.5C75.633 139.684 75.2223 140.681 74.401 141.492C73.5903 142.303 72.593 142.708 71.409 142.708ZM69.633 140.308C70.113 140.788 70.705 141.028 71.409 141.028C72.113 141.028 72.705 140.788 73.185 140.308C73.665 139.828 73.905 139.225 73.905 138.5C73.905 137.775 73.665 137.172 73.185 136.692C72.705 136.212 72.113 135.972 71.409 135.972C70.705 135.972 70.113 136.212 69.633 136.692C69.153 137.172 68.913 137.775 68.913 138.5C68.913 139.225 69.153 139.828 69.633 140.308ZM81.4035 134.292C82.3208 134.292 83.0622 134.585 83.6275 135.172C84.1928 135.759 84.4755 136.564 84.4755 137.588V142.5H82.7475V137.764C82.7475 137.167 82.5875 136.708 82.2675 136.388C81.9475 136.068 81.5102 135.908 80.9555 135.908C80.3475 135.908 79.8568 136.1 79.4835 136.484C79.1102 136.857 78.9235 137.433 78.9235 138.212V142.5H77.1955V134.5H78.9235V135.524C79.4462 134.703 80.2728 134.292 81.4035 134.292ZM90.8001 136.164H88.8161V140.004C88.8161 140.335 88.8908 140.575 89.0401 140.724C89.1895 140.863 89.4081 140.943 89.6961 140.964C89.9948 140.975 90.3628 140.969 90.8001 140.948V142.5C89.4775 142.66 88.5281 142.548 87.9521 142.164C87.3761 141.769 87.0881 141.049 87.0881 140.004V136.164H85.6161V134.5H87.0881V132.772L88.8161 132.26V134.5H90.8001V136.164ZM98.3753 134.5H100.103V142.5H98.3753V141.348C97.7246 142.255 96.7913 142.708 95.5753 142.708C94.4766 142.708 93.5379 142.303 92.7593 141.492C91.9806 140.671 91.5913 139.673 91.5913 138.5C91.5913 137.316 91.9806 136.319 92.7593 135.508C93.5379 134.697 94.4766 134.292 95.5753 134.292C96.7913 134.292 97.7246 134.74 98.3753 135.636V134.5ZM94.0393 140.34C94.5193 140.82 95.1219 141.06 95.8473 141.06C96.5726 141.06 97.1753 140.82 97.6553 140.34C98.1353 139.849 98.3753 139.236 98.3753 138.5C98.3753 137.764 98.1353 137.156 97.6553 136.676C97.1753 136.185 96.5726 135.94 95.8473 135.94C95.1219 135.94 94.5193 136.185 94.0393 136.676C93.5593 137.156 93.3193 137.764 93.3193 138.5C93.3193 139.236 93.5593 139.849 94.0393 140.34ZM105.893 142.708C104.688 142.708 103.68 142.303 102.869 141.492C102.069 140.681 101.669 139.684 101.669 138.5C101.669 137.305 102.069 136.308 102.869 135.508C103.68 134.697 104.688 134.292 105.893 134.292C106.672 134.292 107.381 134.479 108.021 134.852C108.661 135.225 109.141 135.727 109.461 136.356L107.973 137.22C107.792 136.836 107.515 136.537 107.141 136.324C106.779 136.1 106.357 135.988 105.877 135.988C105.173 135.988 104.581 136.228 104.101 136.708C103.632 137.188 103.397 137.785 103.397 138.5C103.397 139.215 103.632 139.812 104.101 140.292C104.581 140.772 105.173 141.012 105.877 141.012C106.347 141.012 106.768 140.9 107.141 140.676C107.525 140.452 107.813 140.153 108.005 139.78L109.493 140.628C109.152 141.268 108.661 141.775 108.021 142.148C107.381 142.521 106.672 142.708 105.893 142.708ZM115.206 136.164H113.222V140.004C113.222 140.335 113.297 140.575 113.446 140.724C113.596 140.863 113.814 140.943 114.102 140.964C114.401 140.975 114.769 140.969 115.206 140.948V142.5C113.884 142.66 112.934 142.548 112.358 142.164C111.782 141.769 111.494 141.049 111.494 140.004V136.164H110.022V134.5H111.494V132.772L113.222 132.26V134.5H115.206V136.164ZM128.148 141.652C127.358 142.356 126.34 142.708 125.092 142.708C123.844 142.708 122.825 142.356 122.036 141.652C121.246 140.937 120.852 139.983 120.852 138.788V131.3H122.692V138.676C122.692 139.359 122.889 139.903 123.284 140.308C123.689 140.713 124.292 140.916 125.092 140.916C125.892 140.916 126.489 140.713 126.884 140.308C127.289 139.903 127.492 139.359 127.492 138.676V131.3H129.332V138.788C129.332 139.983 128.937 140.937 128.148 141.652ZM132.794 136.708C132.794 136.975 132.938 137.188 133.226 137.348C133.525 137.497 133.882 137.631 134.298 137.748C134.725 137.855 135.152 137.983 135.578 138.132C136.005 138.281 136.362 138.537 136.65 138.9C136.949 139.252 137.098 139.7 137.098 140.244C137.098 141.012 136.8 141.615 136.202 142.052C135.616 142.489 134.874 142.708 133.978 142.708C133.189 142.708 132.512 142.543 131.946 142.212C131.381 141.881 130.97 141.423 130.714 140.836L132.202 139.972C132.48 140.74 133.072 141.124 133.978 141.124C134.885 141.124 135.338 140.825 135.338 140.228C135.338 139.972 135.189 139.764 134.89 139.604C134.602 139.444 134.245 139.311 133.818 139.204C133.402 139.087 132.981 138.953 132.554 138.804C132.128 138.655 131.765 138.409 131.466 138.068C131.178 137.716 131.034 137.273 131.034 136.74C131.034 136.004 131.312 135.412 131.866 134.964C132.432 134.516 133.13 134.292 133.962 134.292C134.624 134.292 135.21 134.441 135.722 134.74C136.245 135.028 136.645 135.433 136.922 135.956L135.466 136.772C135.189 136.164 134.688 135.86 133.962 135.86C133.632 135.86 133.354 135.935 133.13 136.084C132.906 136.223 132.794 136.431 132.794 136.708Z" fill="#333333"/>
</g>
<defs>
<filter id="filter0_d_1_1346" x="0" y="97.5" width="201" height="89" filterUnits="userSpaceOnUse" color-interpolation-filters="sRGB">
<feFlood flood-opacity="0" result="BackgroundImageFix"/>
<feColorMatrix in="SourceAlpha" type="matrix" values="0 0 0 0 0 0 0 0 0 0 0 0 0 0 0 0 0 0 127 0" result="hardAlpha"/>
<feOffset dx="4" dy="5"/>
<feGaussianBlur stdDeviation="9.5"/>
<feComposite in2="hardAlpha" operator="out"/>
<feColorMatrix type="matrix" values="0 0 0 0 0 0 0 0 0 0 0 0 0 0 0 0 0 0 0.25 0"/>
<feBlend mode="normal" in2="BackgroundImageFix" result="effect1_dropShadow_1_1346"/>
<feBlend mode="normal" in="SourceGraphic" in2="effect1_dropShadow_1_1346" result="shape"/>
</filter>
</defs>
</svg>
