<svg width="108" height="66" viewBox="0 0 108 66" fill="none" xmlns="http://www.w3.org/2000/svg">
<path opacity="0.05" d="M78.4589 12.9926L85.2996 10.1397L85.8019 11.3593L78.1405 14.5535C74.619 19.2554 73.801 24.8103 75.7688 31.0982C76.6545 33.8494 77.9362 36.457 79.5734 38.8388L107.5 63.561L107.048 64.8037L80.5663 40.6519L79.6019 40.7096C66.1191 41.4766 59.1707 55.5772 58.0343 58.0477L60.7366 65.1298L59.5055 65.6026L56.8718 58.6975C56.2867 58.3508 41.7778 49.7158 29.8538 51.6463L29.4285 51.7125L20.6331 64.3168L19.5542 63.561L23.2185 58.3258L22.5012 58.3998C22.4803 58.1705 19.3149 55.0789 11 48.5371L0.999709 65.6026L0.979124 64.3221L19.9583 27.8439C20.1047 27.7228 32.4121 13.8108 28.0593 6.45853L27.4716 5.46524C19.9005 -4.35145 20.0059 -4.78893 20.0672 -5.06013L20.4736 -5.52588L20.7259 -4.89113L20.796 -4.80636L21.3051 -5.00665C21.5752 -4.33468 24.8424 0.00956532 29.2415 5.67572C31.3401 6.31512 40.6482 8.67524 46.6164 3.33881L48.1082 -18.0838L49.4587 -18.0196L48.6836 -6.70026L49.0385 -6.77315C52.2583 7.13406 77.9038 12.8547 78.1686 12.9083L78.4589 12.9926ZM75.9295 15.4731L68.4001 18.623C68.0974 19.4182 63.6502 31.7104 69.069 34.9376L69.8623 35.4106L77.5365 38.1485C74.9782 33.8928 70.662 24.3564 75.9064 15.4922L75.9295 15.4731ZM22.403 29.0275C27.8521 34.3316 29.6385 43.8057 30.1777 48.3813L35.6832 40.5079C35.7372 40.4633 38.0233 32.0857 32.6067 28.6101L22.403 29.0275ZM59.4636 31.6685C57.6363 29.0661 57.3224 25.1866 57.2914 23.2659L47.5012 27.3378L59.4636 31.6685ZM46.726 28.4718L51.5931 41.1857C52.3174 36.6944 56.4809 34.1344 59.1423 32.9592L46.726 28.4718ZM61.0116 33.6195C58.9923 34.3158 52.6618 37.0325 52.782 42.6551L52.7998 43.6654L52.4726 43.5207L53.8923 47.1996C56.5857 43.0655 64.0053 37.8525 67.0324 35.817L61.0116 33.6195ZM45.461 28.778L38.5173 38.7097C41.8065 38.4037 47.1633 40.1121 50.1973 41.2238L45.461 28.778ZM37.4407 38.0039L44.3587 28.1194L34.6172 28.5309C37.4708 31.2449 37.6843 35.2853 37.4343 37.9962L37.4407 38.0039ZM44.3343 26.8031C41.9797 23.8452 39.8544 21.1648 37.9318 18.7451C38.1484 22.3028 36.0567 25.4854 34.6364 27.2045L44.3343 26.8031ZM45.1172 25.6628L45.8051 15.7131C43.6916 17.2528 40.6317 17.5379 38.6714 17.5367C40.8782 20.3314 43.0862 23.112 45.1108 25.6551L45.1172 25.6628ZM46.3987 26.3809L55.5464 22.5677C51.8052 21.5737 48.6834 18.0174 47.1141 15.9153L46.3987 26.3809ZM47.239 13.775C47.9504 14.8866 52.6363 21.8727 57.8951 21.4693L58.1089 21.4612L64.2327 18.9025C55.9766 17.6579 50.0569 9.22659 47.8052 5.48296L47.239 13.775ZM58.5894 22.6858C58.5865 24.4399 58.7906 30.2267 61.8494 32.2002L62.9133 32.8906L66.4089 34.1526C63.6776 29.9232 65.7548 22.2503 66.7164 19.3014L58.5894 22.6858ZM77.5923 39.5814L68.5718 36.3607C66.3138 37.8513 56.4431 44.4939 54.4893 48.7691L57.3968 56.382C59.4794 52.2468 66.0672 41.3509 77.6115 39.6045L77.5923 39.5814ZM56.1175 56.765L50.8299 42.8677C47.2041 41.4797 39.9867 39.1687 37.5318 40.2641L37.3853 40.3852L30.4751 50.2633C40.7461 48.9858 52.1465 54.5985 56.1366 56.7881L56.1175 56.765ZM23.7361 57.5864L29.0189 50.04C28.6487 46.4535 27.1003 34.3952 20.5065 29.1034L11.792 47.1174C18.9614 54.204 21 55.0371 23.7361 57.5864ZM21.723 27.7342L32.7835 27.2703C33.8956 26.1043 37.8273 21.5692 36.251 16.9947L36.0296 16.3344C33.7973 13.5089 31.871 11.0533 30.2109 8.93547C30.998 15.914 24.1119 24.864 21.723 27.7342ZM30.6296 7.29181C32.8145 10.0915 35.197 13.1302 37.5999 16.1779C39.3101 16.2691 44.004 16.2809 45.9575 13.7316L46.542 5.02222C41.1887 8.96799 34.1834 8.09052 30.6296 7.29181ZM48.4775 -4.0776L47.9565 3.13915C48.0648 3.27017 55.8314 18.4396 67.0208 17.7393L76.316 13.869C72.132 12.7734 68.0494 11.3217 64.113 9.52968C55.9155 5.71937 50.653 1.14332 48.4738 -4.11343L48.4775 -4.0776Z" fill="white"/>
</svg>
